<svg width="360" height="485" viewBox="0 0 360 485" fill="none" xmlns="http://www.w3.org/2000/svg">
<g opacity="0.5" clip-path="url(#clip0_2_69)">
<path d="M435 -12H-75V498H435V-12Z" fill="black"/>
<path opacity="0.87" d="M342.887 438.322L13.366 108.801C12.9926 108.428 12.3871 108.428 12.0137 108.801C11.6402 109.175 11.6402 109.78 12.0137 110.154L341.535 439.674C341.908 440.048 342.513 440.048 342.887 439.674C343.26 439.301 343.26 438.696 342.887 438.322Z" fill="#0062FF"/>
<path opacity="0.7" d="M103.466 454.539L-72.3385 278.734C-72.7119 278.361 -73.3174 278.361 -73.6909 278.734C-74.0643 279.108 -74.0643 279.713 -73.6909 280.087L102.114 455.891C102.487 456.265 103.092 456.265 103.466 455.891C103.839 455.518 103.839 454.912 103.466 454.539Z" fill="#0062FF"/>
<path opacity="0.58" d="M111.145 249.93L-184.567 -45.782C-184.94 -46.1555 -185.546 -46.1555 -185.919 -45.7821C-186.293 -45.4086 -186.293 -44.8031 -185.919 -44.4297L109.793 251.283C110.166 251.656 110.772 251.656 111.145 251.283C111.519 250.909 111.519 250.304 111.145 249.93Z" fill="#0062FF"/>
<path opacity="0.2" d="M364.672 345.357L254.23 234.916C253.857 234.543 253.252 234.543 252.878 234.916C252.505 235.29 252.505 235.895 252.878 236.269L363.319 346.71C363.693 347.083 364.298 347.083 364.672 346.71C365.045 346.336 365.045 345.731 364.672 345.357Z" fill="#0062FF"/>
<path opacity="0.73" d="M359.958 194.655L280.62 115.318C280.247 114.944 279.641 114.944 279.268 115.318C278.894 115.691 278.894 116.297 279.268 116.67L358.605 196.008C358.979 196.381 359.584 196.381 359.958 196.008C360.331 195.634 360.331 195.029 359.958 194.655Z" fill="#0062FF"/>
<path opacity="0.49" d="M109.509 228.532L56.7681 175.791C56.3946 175.417 55.7892 175.417 55.4157 175.791C55.0423 176.164 55.0423 176.77 55.4157 177.143L108.157 229.884C108.53 230.258 109.136 230.258 109.509 229.884C109.883 229.511 109.883 228.906 109.509 228.532Z" fill="#0062FF"/>
<path opacity="0.22" d="M327.875 53.5597L315.253 40.9379C314.88 40.5645 314.274 40.5645 313.901 40.9379C313.527 41.3113 313.527 41.9168 313.901 42.2902L326.523 54.9121C326.896 55.2855 327.502 55.2855 327.875 54.9121C328.248 54.5386 328.248 53.9332 327.875 53.5597Z" fill="#0062FF"/>
<path opacity="0.16" d="M256.908 411.631L177.12 331.843C176.747 331.469 176.141 331.469 175.768 331.843C175.394 332.216 175.394 332.822 175.768 333.195L255.556 412.983C255.929 413.357 256.535 413.357 256.908 412.983C257.282 412.61 257.282 412.004 256.908 411.631Z" fill="#0062FF"/>
<path opacity="0.53" d="M395.022 177.445L226.43 8.85296C226.057 8.47952 225.451 8.47952 225.078 8.85296C224.704 9.2264 224.704 9.83186 225.078 10.2053L393.67 178.797C394.043 179.171 394.649 179.171 395.022 178.797C395.396 178.424 395.396 177.818 395.022 177.445Z" fill="#0062FF"/>
<path opacity="0.69" d="M239.965 93.7876L195.338 49.1603C194.964 48.7869 194.359 48.7869 193.985 49.1603C193.612 49.5337 193.612 50.1392 193.985 50.5126L238.613 95.1399C238.986 95.5134 239.592 95.5134 239.965 95.1399C240.338 94.7665 240.338 94.161 239.965 93.7876Z" fill="#0062FF"/>
<path opacity="0.26" d="M353.122 434.532L156.131 237.541C155.757 237.168 155.152 237.168 154.778 237.541C154.405 237.915 154.405 238.52 154.778 238.894L351.77 435.885C352.143 436.258 352.748 436.258 353.122 435.885C353.495 435.511 353.495 434.906 353.122 434.532Z" fill="#0062FF"/>
<path opacity="0.55" d="M66.449 86.0217L25.8787 45.4514C25.5053 45.078 24.8998 45.078 24.5264 45.4514C24.153 45.8249 24.153 46.4303 24.5264 46.8038L65.0967 87.3741C65.4701 87.7475 66.0756 87.7475 66.449 87.3741C66.8225 87.0006 66.8225 86.3952 66.449 86.0217Z" fill="#0062FF"/>
<path opacity="0.15" d="M196.009 529.869L-57.7808 276.08C-58.1542 275.706 -58.7597 275.706 -59.1331 276.08C-59.5066 276.453 -59.5066 277.059 -59.1331 277.432L194.656 531.222C195.03 531.595 195.635 531.595 196.009 531.222C196.382 530.848 196.382 530.243 196.009 529.869Z" fill="#0062FF"/>
<path opacity="0.74" d="M257.081 193.779L193.521 130.219C193.148 129.845 192.542 129.845 192.169 130.219C191.795 130.592 191.795 131.198 192.169 131.571L255.729 195.131C256.102 195.505 256.708 195.505 257.081 195.131C257.455 194.758 257.455 194.152 257.081 193.779Z" fill="#0062FF"/>
<path d="M32.0915 311.127L-129.739 149.296C-130.112 148.923 -130.718 148.923 -131.091 149.296C-131.465 149.67 -131.465 150.275 -131.091 150.649L30.7392 312.479C31.1126 312.852 31.7181 312.852 32.0916 312.479C32.465 312.105 32.465 311.5 32.0915 311.127Z" fill="#0062FF"/>
<path opacity="0.63" d="M140.277 144.55L66.8001 71.0727C66.4266 70.6993 65.8212 70.6993 65.4477 71.0727C65.0743 71.4462 65.0743 72.0517 65.4477 72.4251L138.925 145.902C139.298 146.276 139.904 146.276 140.277 145.902C140.651 145.529 140.651 144.923 140.277 144.55Z" fill="#0062FF"/>
<path opacity="0.51" d="M50.5129 488.286L-34.6846 403.088C-35.0581 402.715 -35.6635 402.715 -36.037 403.088C-36.4104 403.462 -36.4104 404.067 -36.037 404.44L49.1606 489.638C49.534 490.011 50.1395 490.011 50.5129 489.638C50.8864 489.265 50.8864 488.659 50.5129 488.286Z" fill="#0062FF"/>
<path opacity="0.39" d="M226.381 422.541L62.2969 258.457C61.9235 258.084 61.318 258.084 60.9446 258.457C60.5711 258.831 60.5711 259.436 60.9446 259.81L225.029 423.894C225.402 424.267 226.008 424.267 226.381 423.894C226.755 423.52 226.755 422.915 226.381 422.541Z" fill="#0062FF"/>
<path opacity="0.96" d="M280.217 156.99L2.0854 -121.142C1.71196 -121.515 1.10649 -121.515 0.733054 -121.142C0.359615 -120.768 0.359615 -120.163 0.733054 -119.789L278.865 158.342C279.238 158.716 279.844 158.716 280.217 158.342C280.59 157.969 280.59 157.363 280.217 156.99Z" fill="#0062FF"/>
<path opacity="0.12" d="M529.267 400.302L280.886 151.921C280.513 151.548 279.907 151.548 279.534 151.921C279.16 152.295 279.16 152.9 279.534 153.274L527.914 401.654C528.288 402.027 528.893 402.027 529.267 401.654C529.64 401.28 529.64 400.675 529.267 400.302Z" fill="#0062FF"/>
<path opacity="0.82" d="M328.035 440.683L86.8675 199.515C86.494 199.142 85.8886 199.142 85.5151 199.515C85.1417 199.889 85.1417 200.494 85.5151 200.868L326.683 442.035C327.056 442.409 327.662 442.409 328.035 442.035C328.408 441.662 328.408 441.056 328.035 440.683Z" fill="#0062FF"/>
<path opacity="0.88" d="M524.745 284.218L300.707 60.1799C300.334 59.8065 299.728 59.8065 299.355 60.1799C298.981 60.5534 298.981 61.1588 299.355 61.5323L523.393 285.57C523.766 285.944 524.372 285.944 524.745 285.57C525.118 285.197 525.118 284.591 524.745 284.218Z" fill="#0062FF"/>
<path opacity="0.68" d="M127.03 172.74L108.098 153.807C107.724 153.434 107.119 153.434 106.745 153.807C106.372 154.181 106.372 154.786 106.745 155.16L125.678 174.093C126.051 174.466 126.657 174.466 127.03 174.093C127.404 173.719 127.404 173.114 127.03 172.74Z" fill="#0062FF"/>
<path opacity="0.71" d="M17.7826 105.568L-119.255 -31.4698C-119.628 -31.8432 -120.234 -31.8432 -120.607 -31.4698C-120.981 -31.0964 -120.981 -30.4909 -120.607 -30.1175L16.4303 106.92C16.8037 107.293 17.4092 107.293 17.7826 106.92C18.1561 106.547 18.1561 105.941 17.7826 105.568Z" fill="#0062FF"/>
<path opacity="0.36" d="M486.641 152.401L354.112 19.8713C353.738 19.4979 353.133 19.4979 352.759 19.8713C352.386 20.2448 352.386 20.8502 352.759 21.2237L485.289 153.753C485.662 154.127 486.268 154.127 486.641 153.753C487.015 153.38 487.015 152.774 486.641 152.401Z" fill="#0062FF"/>
<path opacity="0.89" d="M478.483 545.869L326.57 393.955C326.197 393.582 325.591 393.582 325.218 393.955C324.844 394.329 324.844 394.934 325.218 395.308L477.131 547.221C477.504 547.594 478.11 547.594 478.483 547.221C478.856 546.847 478.856 546.242 478.483 545.869Z" fill="#0062FF"/>
<path opacity="0.41" d="M323.584 521.02L111.718 309.153C111.344 308.78 110.739 308.78 110.365 309.153C109.992 309.527 109.992 310.132 110.365 310.506L322.232 522.372C322.605 522.746 323.211 522.746 323.584 522.372C323.958 521.999 323.958 521.393 323.584 521.02Z" fill="#0062FF"/>
<path opacity="0.26" d="M408.749 182.884L324.903 99.039C324.53 98.6655 323.924 98.6655 323.551 99.039C323.178 99.4124 323.178 100.018 323.551 100.391L407.396 184.237C407.77 184.61 408.375 184.61 408.749 184.237C409.122 183.863 409.122 183.258 408.749 182.884Z" fill="#0062FF"/>
<path opacity="0.35" d="M460.376 408.548L302.603 250.775C302.229 250.402 301.624 250.402 301.25 250.775C300.877 251.149 300.877 251.754 301.25 252.128L459.024 409.901C459.397 410.274 460.002 410.274 460.376 409.901C460.749 409.527 460.749 408.922 460.376 408.548Z" fill="#0062FF"/>
<path opacity="0.58" d="M417.279 460.439L183.774 226.935C183.401 226.561 182.796 226.561 182.422 226.935C182.049 227.308 182.049 227.913 182.422 228.287L415.926 461.791C416.3 462.165 416.905 462.165 417.279 461.791C417.652 461.418 417.652 460.812 417.279 460.439Z" fill="#0062FF"/>
<path d="M285.369 76.7165L250.659 42.0064C250.286 41.6329 249.68 41.6329 249.307 42.0064C248.933 42.3798 248.933 42.9853 249.307 43.3587L284.017 78.0688C284.39 78.4423 284.996 78.4423 285.369 78.0688C285.743 77.6954 285.743 77.0899 285.369 76.7165Z" fill="#0062FF"/>
<path opacity="0.85" d="M203.89 147.601L-58.0134 -114.303C-58.3869 -114.676 -58.9923 -114.676 -59.3658 -114.303C-59.7392 -113.929 -59.7392 -113.324 -59.3658 -112.951L202.538 148.953C202.911 149.327 203.517 149.327 203.89 148.953C204.264 148.58 204.264 147.974 203.89 147.601Z" fill="#0062FF"/>
<path opacity="0.17" d="M182.843 465.704L62.4847 345.345C62.1113 344.972 61.5058 344.972 61.1324 345.345C60.7589 345.719 60.7589 346.324 61.1324 346.697L181.491 467.056C181.864 467.429 182.47 467.429 182.843 467.056C183.217 466.682 183.217 466.077 182.843 465.704Z" fill="#0062FF"/>
<path opacity="0.93" d="M318.308 57.3809L224.095 -36.8323C223.722 -37.2058 223.116 -37.2058 222.743 -36.8323C222.369 -36.4589 222.369 -35.8534 222.743 -35.48L316.956 58.7332C317.329 59.1067 317.935 59.1066 318.308 58.7332C318.682 58.3598 318.682 57.7543 318.308 57.3809Z" fill="#0062FF"/>
<path opacity="0.63" d="M82.3634 261.948L-61.4357 118.149C-61.8091 117.776 -62.4146 117.776 -62.788 118.149C-63.1615 118.523 -63.1615 119.128 -62.788 119.502L81.0111 263.301C81.3845 263.674 81.99 263.674 82.3634 263.301C82.7369 262.927 82.7369 262.322 82.3634 261.948Z" fill="#0062FF"/>
<path opacity="0.95" d="M216.713 189.749L130.614 103.649C130.24 103.276 129.635 103.276 129.261 103.649C128.888 104.023 128.888 104.628 129.261 105.002L215.361 191.101C215.734 191.474 216.339 191.474 216.713 191.101C217.086 190.728 217.086 190.122 216.713 189.749Z" fill="#0062FF"/>
<path opacity="0.55" d="M321.847 586.857L81.5811 346.591C81.2077 346.218 80.6022 346.218 80.2288 346.591C79.8554 346.965 79.8554 347.57 80.2288 347.944L320.495 588.21C320.868 588.583 321.473 588.583 321.847 588.209C322.22 587.836 322.22 587.231 321.847 586.857Z" fill="#0062FF"/>
<path opacity="0.42" d="M384.347 278.97L158.055 52.6778C157.682 52.3044 157.076 52.3044 156.703 52.6778C156.33 53.0513 156.33 53.6567 156.703 54.0302L382.995 280.322C383.368 280.695 383.974 280.695 384.347 280.322C384.721 279.949 384.721 279.343 384.347 278.97Z" fill="#0062FF"/>
<path opacity="0.2" d="M149.192 541.702L1.78642 394.297C1.41298 393.923 0.807513 393.923 0.434073 394.297C0.0606344 394.67 0.0606342 395.276 0.434073 395.649L147.839 543.054C148.213 543.428 148.818 543.428 149.192 543.054C149.565 542.681 149.565 542.075 149.192 541.702Z" fill="#0062FF"/>
<path opacity="0.18" d="M10.3569 351.867L-82.5039 259.006C-82.8773 258.633 -83.4828 258.633 -83.8562 259.006C-84.2296 259.38 -84.2296 259.985 -83.8562 260.358L9.00454 353.219C9.37798 353.593 9.98344 353.593 10.3569 353.219C10.7303 352.846 10.7303 352.24 10.3569 351.867Z" fill="#0062FF"/>
<path opacity="0.49" d="M153.233 173.443L-157.806 -137.596C-158.179 -137.969 -158.784 -137.969 -159.158 -137.596C-159.531 -137.222 -159.531 -136.617 -159.158 -136.243L151.881 174.796C152.254 175.169 152.86 175.169 153.233 174.796C153.607 174.422 153.607 173.817 153.233 173.443Z" fill="#0062FF"/>
<path opacity="0.63" d="M334.843 31.203L286.609 -17.0305C286.236 -17.4039 285.63 -17.4039 285.257 -17.0305C284.883 -16.6571 284.883 -16.0516 285.257 -15.6782L333.49 32.5554C333.864 32.9288 334.469 32.9288 334.843 32.5554C335.216 32.1819 335.216 31.5765 334.843 31.203Z" fill="#0062FF"/>
<path opacity="0.11" d="M44.8995 255.722L-141.273 69.5503C-141.646 69.1768 -142.252 69.1768 -142.625 69.5503C-142.999 69.9237 -142.999 70.5292 -142.625 70.9026L43.5472 257.075C43.9206 257.448 44.5261 257.448 44.8995 257.075C45.2729 256.701 45.2729 256.096 44.8995 255.722Z" fill="#0062FF"/>
<path opacity="0.88" d="M158.989 486.474L129.689 457.174C129.315 456.8 128.71 456.8 128.336 457.174C127.963 457.547 127.963 458.152 128.336 458.526L157.637 487.827C158.01 488.2 158.616 488.2 158.989 487.827C159.363 487.453 159.363 486.848 158.989 486.474Z" fill="#0062FF"/>
<path opacity="0.49" d="M59.1318 567.029L-149.129 358.769C-149.502 358.395 -150.108 358.395 -150.481 358.769C-150.855 359.142 -150.855 359.747 -150.481 360.121L57.7794 568.382C58.1529 568.755 58.7583 568.755 59.1318 568.382C59.5052 568.008 59.5052 567.403 59.1318 567.029Z" fill="#0062FF"/>
<path opacity="0.8" d="M445.082 284.242L279.646 118.806C279.272 118.432 278.667 118.432 278.293 118.806C277.92 119.179 277.92 119.785 278.293 120.158L443.73 285.594C444.103 285.968 444.709 285.968 445.082 285.594C445.456 285.221 445.456 284.616 445.082 284.242Z" fill="#0062FF"/>
<path opacity="0.23" d="M462.675 483.523L291.378 312.226C291.005 311.853 290.399 311.853 290.026 312.226C289.652 312.599 289.652 313.205 290.026 313.578L461.322 484.875C461.696 485.248 462.301 485.248 462.675 484.875C463.048 484.502 463.048 483.896 462.675 483.523Z" fill="#0062FF"/>
<path opacity="0.74" d="M36.3449 173.855L-14.1425 123.368C-14.516 122.994 -15.1214 122.994 -15.4949 123.368C-15.8683 123.741 -15.8683 124.346 -15.4949 124.72L34.9926 175.207C35.366 175.581 35.9715 175.581 36.3449 175.207C36.7183 174.834 36.7183 174.228 36.3449 173.855Z" fill="#0062FF"/>
<path opacity="0.34" d="M454.408 578.531L215.494 339.618C215.121 339.244 214.516 339.244 214.142 339.618C213.769 339.991 213.769 340.596 214.142 340.97L453.056 579.884C453.429 580.257 454.035 580.257 454.408 579.884C454.782 579.51 454.782 578.905 454.408 578.531Z" fill="#0062FF"/>
<path opacity="0.14" d="M204.409 141.106L80.444 17.1416C80.0705 16.7681 79.4651 16.7681 79.0916 17.1416C78.7182 17.515 78.7182 18.1205 79.0916 18.4939L203.056 142.459C203.43 142.832 204.035 142.832 204.409 142.459C204.782 142.085 204.782 141.48 204.409 141.106Z" fill="#0062FF"/>
<path opacity="0.24" d="M297.718 321.116L76.3844 99.7824C76.011 99.4089 75.4055 99.4089 75.0321 99.7824C74.6586 100.156 74.6586 100.761 75.032 101.135L296.365 322.468C296.739 322.841 297.344 322.841 297.718 322.468C298.091 322.095 298.091 321.489 297.718 321.116Z" fill="#0062FF"/>
<path opacity="0.6" d="M416.195 443.417L265.183 292.406C264.81 292.032 264.205 292.032 263.831 292.406C263.458 292.779 263.458 293.385 263.831 293.758L414.843 444.77C415.216 445.143 415.822 445.143 416.195 444.77C416.568 444.396 416.568 443.791 416.195 443.417Z" fill="#0062FF"/>
<path opacity="0.64" d="M265.415 46.5617L192.839 -26.014C192.465 -26.3875 191.86 -26.3875 191.487 -26.014C191.113 -25.6406 191.113 -25.0351 191.487 -24.6617L264.062 47.914C264.436 48.2874 265.041 48.2875 265.415 47.914C265.788 47.5406 265.788 46.9351 265.415 46.5617Z" fill="#0062FF"/>
<path opacity="0.14" d="M237.699 494.422L-91.8217 164.901C-92.1951 164.528 -92.8006 164.528 -93.174 164.901C-93.5475 165.275 -93.5475 165.88 -93.174 166.254L236.347 495.774C236.72 496.148 237.326 496.148 237.699 495.774C238.073 495.401 238.073 494.796 237.699 494.422Z" fill="#0062FF"/>
<path opacity="0.68" d="M136.095 390.268L-88.393 165.779C-88.7665 165.406 -89.3719 165.406 -89.7454 165.779C-90.1188 166.153 -90.1188 166.758 -89.7454 167.132L134.743 391.62C135.117 391.993 135.722 391.993 136.095 391.62C136.469 391.247 136.469 390.641 136.095 390.268Z" fill="#0062FF"/>
<path opacity="0.69" d="M55.4501 131.76L27.9525 104.263C27.5791 103.889 26.9736 103.889 26.6002 104.263C26.2267 104.636 26.2267 105.242 26.6002 105.615L54.0978 133.113C54.4712 133.486 55.0767 133.486 55.4501 133.113C55.8236 132.739 55.8236 132.134 55.4501 131.76Z" fill="#0062FF"/>
<path opacity="0.63" d="M385.656 39.9416L336.521 -9.19349C336.148 -9.56693 335.542 -9.56693 335.169 -9.19349C334.795 -8.82005 334.795 -8.21459 335.169 -7.84115L384.304 41.2939C384.677 41.6673 385.283 41.6673 385.656 41.2939C386.03 40.9205 386.03 40.315 385.656 39.9416Z" fill="#0062FF"/>
<path opacity="0.99" d="M311.837 165.659L198.691 52.5136C198.317 52.1402 197.712 52.1402 197.339 52.5136C196.965 52.887 196.965 53.4925 197.339 53.8659L310.484 167.012C310.858 167.385 311.463 167.385 311.837 167.012C312.21 166.638 312.21 166.033 311.837 165.659Z" fill="#0062FF"/>
<path opacity="0.69" d="M229.86 383.308L-11.3076 142.14C-11.6811 141.767 -12.2865 141.767 -12.66 142.14C-13.0334 142.514 -13.0334 143.119 -12.66 143.492L228.508 384.66C228.881 385.033 229.486 385.033 229.86 384.66C230.233 384.287 230.233 383.681 229.86 383.308Z" fill="#0062FF"/>
<path opacity="0.43" d="M208.675 45.9234L180.727 17.975C180.354 17.6016 179.748 17.6016 179.375 17.975C179.001 18.3485 179.001 18.9539 179.375 19.3274L207.323 47.2758C207.697 47.6492 208.302 47.6492 208.675 47.2758C209.049 46.9023 209.049 46.2969 208.675 45.9234Z" fill="#0062FF"/>
<path opacity="0.87" d="M278.08 274.066L215.872 211.858C215.499 211.485 214.893 211.485 214.52 211.858C214.147 212.232 214.147 212.837 214.52 213.211L276.728 275.418C277.101 275.792 277.707 275.792 278.08 275.418C278.454 275.045 278.454 274.439 278.08 274.066Z" fill="#0062FF"/>
<path opacity="0.55" d="M412.361 93.4207L358.267 39.3271C357.893 38.9536 357.288 38.9536 356.914 39.3271C356.541 39.7005 356.541 40.306 356.914 40.6794L411.008 94.7731C411.382 95.1465 411.987 95.1465 412.361 94.7731C412.734 94.3997 412.734 93.7942 412.361 93.4207Z" fill="#0062FF"/>
<path opacity="0.62" d="M265.287 173.297L122.84 30.8505C122.467 30.4771 121.862 30.4771 121.488 30.8505C121.115 31.224 121.115 31.8295 121.488 32.2029L263.935 174.65C264.308 175.023 264.914 175.023 265.287 174.65C265.661 174.276 265.661 173.671 265.287 173.297Z" fill="#0062FF"/>
<path opacity="0.72" d="M274.892 298.289L257.312 280.709C256.938 280.336 256.333 280.336 255.959 280.709C255.586 281.083 255.586 281.688 255.959 282.061L273.54 299.642C273.913 300.015 274.519 300.015 274.892 299.642C275.265 299.268 275.265 298.663 274.892 298.289Z" fill="#0062FF"/>
<path opacity="0.43" d="M103.047 315.782L-65.5448 147.19C-65.9183 146.817 -66.5237 146.817 -66.8972 147.19C-67.2706 147.564 -67.2706 148.169 -66.8972 148.543L101.695 317.135C102.068 317.508 102.674 317.508 103.047 317.135C103.421 316.761 103.421 316.156 103.047 315.782Z" fill="#0062FF"/>
<path opacity="0.39" d="M390.364 133.262L317.788 60.6862C317.415 60.3128 316.81 60.3128 316.436 60.6862C316.063 61.0597 316.063 61.6651 316.436 62.0386L389.012 134.614C389.385 134.988 389.991 134.988 390.364 134.614C390.738 134.241 390.738 133.635 390.364 133.262Z" fill="#0062FF"/>
<path opacity="0.97" d="M335.303 540.388L189.25 394.335C188.877 393.962 188.271 393.962 187.898 394.335C187.524 394.709 187.524 395.314 187.898 395.688L333.951 541.741C334.324 542.114 334.93 542.114 335.303 541.741C335.676 541.367 335.676 540.762 335.303 540.388Z" fill="#0062FF"/>
<path opacity="0.83" d="M252.074 500.51L81.2284 329.664C80.855 329.29 80.2495 329.29 79.8761 329.664C79.5026 330.037 79.5026 330.643 79.8761 331.016L250.722 501.862C251.095 502.236 251.701 502.236 252.074 501.862C252.448 501.489 252.448 500.883 252.074 500.51Z" fill="#0062FF"/>
<path opacity="0.66" d="M314.301 433.324L256.151 375.174C255.777 374.8 255.172 374.8 254.798 375.174C254.425 375.547 254.425 376.152 254.798 376.526L312.949 434.677C313.323 435.05 313.928 435.05 314.301 434.677C314.675 434.303 314.675 433.698 314.301 433.324Z" fill="#0062FF"/>
<path opacity="0.12" d="M479.362 411.596L222.417 154.651C222.043 154.278 221.438 154.278 221.064 154.651C220.691 155.025 220.691 155.63 221.064 156.004L478.009 412.949C478.383 413.322 478.988 413.322 479.362 412.949C479.735 412.575 479.735 411.97 479.362 411.596Z" fill="#0062FF"/>
<path opacity="0.66" d="M342.397 258.057L275.231 190.891C274.857 190.517 274.252 190.517 273.878 190.891C273.505 191.264 273.505 191.87 273.878 192.243L341.045 259.409C341.418 259.783 342.024 259.783 342.397 259.409C342.771 259.036 342.771 258.431 342.397 258.057Z" fill="#0062FF"/>
</g>
<defs>
<clipPath id="clip0_2_69">
<rect width="510" height="510" fill="white" transform="translate(-75 -12)"/>
</clipPath>
</defs>
</svg>
